<svg width="27" height="27" viewBox="0 0 27 27" fill="none" xmlns="http://www.w3.org/2000/svg">
<g clip-path="url(#clip0_1_46)">
<path fill-rule="evenodd" clip-rule="evenodd" d="M13.3058 0C5.95437 0 0 5.95437 0 13.3058C0 19.1937 3.8088 24.1667 9.09787 25.9298C9.76317 26.0462 10.0126 25.647 10.0126 25.2977C10.0126 24.9817 9.99602 23.9339 9.99602 22.8195C6.65292 23.4349 5.78804 22.0045 5.52193 21.2561C5.37224 20.8735 4.72358 19.6927 4.15808 19.3766C3.69237 19.1272 3.02708 18.5118 4.14144 18.4951C5.18928 18.4785 5.93773 19.4598 6.18722 19.859C7.38475 21.8715 9.29746 21.306 10.0625 20.9567C10.179 20.0918 10.5283 19.5097 10.9108 19.1771C7.95024 18.8444 4.85663 17.6968 4.85663 12.6073C4.85663 11.1603 5.37224 9.96275 6.22048 9.03134C6.08743 8.6987 5.62172 7.33485 6.35354 5.50529C6.35354 5.50529 7.46791 5.15602 10.0126 6.86914C11.0771 6.56976 12.2081 6.42007 13.3391 6.42007C14.4701 6.42007 15.6011 6.56976 16.6656 6.86914C19.2103 5.13938 20.3247 5.50529 20.3247 5.50529C21.0565 7.33485 20.5908 8.6987 20.4577 9.03134C21.306 9.96275 21.8216 11.1436 21.8216 12.6073C21.8216 17.7134 18.7113 18.8444 15.7508 19.1771C16.2331 19.5929 16.6489 20.3912 16.6489 21.6386C16.6489 23.4183 16.6323 24.8487 16.6323 25.2977C16.6323 25.647 16.8818 26.0628 17.5471 25.9298C22.8029 24.1667 26.6117 19.1771 26.6117 13.3058C26.6117 5.95437 20.6573 0 13.3058 0Z" fill="url(#paint0_radial_1_46)"/>
</g>
<defs>
<radialGradient id="paint0_radial_1_46" cx="0" cy="0" r="1" gradientUnits="userSpaceOnUse" gradientTransform="translate(13.3058 -1.62516) rotate(90) scale(27.5803 28.278)">
<stop stop-color="#FBE0D5"/>
<stop offset="0.302885" stop-color="#F7E2F1"/>
<stop offset="0.600962" stop-color="#C6D6F8"/>
<stop offset="1" stop-color="#F2F3E1"/>
</radialGradient>
<clipPath id="clip0_1_46">
<rect width="26.6117" height="26.6117" fill="white"/>
</clipPath>
</defs>
</svg>
