<svg width="173" height="33" viewBox="0 0 173 33" fill="none" xmlns="http://www.w3.org/2000/svg">
<g filter="url(#filter0_di_1_45)">
<path d="M1.38173 26.259V10.3613H4.7429V23.4878H11.5584V26.259H1.38173ZM14.2694 30.7302C13.8503 30.7302 13.457 30.6965 13.0895 30.6293C12.7273 30.5672 12.4271 30.487 12.1891 30.3886L12.9343 27.9202C13.3224 28.0392 13.6717 28.1039 13.9822 28.1142C14.2979 28.1246 14.5696 28.0521 14.7973 27.8969C15.0302 27.7416 15.2191 27.4777 15.364 27.1051L15.558 26.6005L11.2809 14.3357H14.7585L17.227 23.0919H17.3512L19.8429 14.3357H23.3438L18.7096 27.5475C18.4871 28.1893 18.1843 28.7482 17.8014 29.2243C17.4236 29.7055 16.9449 30.0755 16.3653 30.3343C15.7857 30.5982 15.0871 30.7302 14.2694 30.7302ZM25.0361 26.259V14.3357H28.242V16.4161H28.3662C28.5835 15.6761 28.9484 15.1172 29.4607 14.7394C29.973 14.3564 30.563 14.165 31.2305 14.165C31.3961 14.165 31.5747 14.1753 31.7662 14.196C31.9576 14.2167 32.1258 14.2452 32.2707 14.2814V17.2156C32.1155 17.1691 31.9007 17.1277 31.6264 17.0914C31.3522 17.0552 31.1012 17.0371 30.8735 17.0371C30.387 17.0371 29.9523 17.1432 29.5694 17.3554C29.1916 17.5624 28.8914 17.8522 28.6689 18.2248C28.4516 18.5974 28.3429 19.0269 28.3429 19.5133V26.259H25.0361ZM33.9804 26.259V14.3357H37.2872V26.259H33.9804ZM35.6416 12.7988C35.15 12.7988 34.7282 12.6358 34.3763 12.3097C34.0296 11.9785 33.8562 11.5826 33.8562 11.1221C33.8562 10.6667 34.0296 10.276 34.3763 9.94993C34.7282 9.61873 35.15 9.45313 35.6416 9.45313C36.1332 9.45313 36.5524 9.61873 36.8991 9.94993C37.251 10.276 37.427 10.6667 37.427 11.1221C37.427 11.5826 37.251 11.9785 36.8991 12.3097C36.5524 12.6358 36.1332 12.7988 35.6416 12.7988ZM45.3234 26.4918C44.1021 26.4918 43.0516 26.2331 42.1718 25.7156C41.2972 25.1929 40.6245 24.4684 40.1535 23.5421C39.6878 22.6158 39.4549 21.5497 39.4549 20.3439C39.4549 19.1226 39.6904 18.0514 40.1613 17.1303C40.6374 16.2039 41.3127 15.482 42.1873 14.9645C43.0619 14.4418 44.1021 14.1805 45.3079 14.1805C46.348 14.1805 47.2588 14.3694 48.0403 14.7472C48.8217 15.1249 49.4401 15.6554 49.8955 16.3385C50.3509 17.0216 50.6019 17.8237 50.6485 18.7449H47.5279C47.44 18.1497 47.2071 17.671 46.8293 17.3088C46.4567 16.9414 45.9677 16.7577 45.3622 16.7577C44.8499 16.7577 44.4022 16.8974 44.0193 17.1768C43.6415 17.4511 43.3465 17.8522 43.1344 18.38C42.9222 18.9079 42.8161 19.547 42.8161 20.2974C42.8161 21.0581 42.9196 21.705 43.1266 22.238C43.3388 22.771 43.6363 23.1773 44.0193 23.4567C44.4022 23.7362 44.8499 23.8759 45.3622 23.8759C45.74 23.8759 46.0789 23.7983 46.3791 23.643C46.6844 23.4878 46.9354 23.2626 47.132 22.9677C47.3339 22.6675 47.4658 22.3079 47.5279 21.8887H50.6485C50.5967 22.7995 50.3483 23.6016 49.9033 24.2951C49.4634 24.9833 48.8553 25.5215 48.0791 25.9097C47.3028 26.2978 46.3843 26.4918 45.3234 26.4918ZM52.7657 26.259V14.3357H56.0725V26.259H52.7657ZM54.4269 12.7988C53.9352 12.7988 53.5135 12.6358 53.1616 12.3097C52.8149 11.9785 52.6415 11.5826 52.6415 11.1221C52.6415 10.6667 52.8149 10.276 53.1616 9.94993C53.5135 9.61873 53.9352 9.45313 54.4269 9.45313C54.9185 9.45313 55.3377 9.61873 55.6844 9.94993C56.0363 10.276 56.2123 10.6667 56.2123 11.1221C56.2123 11.5826 56.0363 11.9785 55.6844 12.3097C55.3377 12.6358 54.9185 12.7988 54.4269 12.7988ZM68.642 17.7357L65.6146 17.922C65.5628 17.6633 65.4516 17.4304 65.2808 17.2234C65.11 17.0112 64.8849 16.843 64.6055 16.7188C64.3312 16.5895 64.0026 16.5248 63.6196 16.5248C63.1073 16.5248 62.6752 16.6335 62.3233 16.8508C61.9714 17.063 61.7954 17.3476 61.7954 17.7047C61.7954 17.9893 61.9093 18.2299 62.137 18.4266C62.3647 18.6232 62.7554 18.7811 63.3091 18.9001L65.4671 19.3348C66.6263 19.5729 67.4905 19.9558 68.0598 20.4837C68.629 21.0115 68.9137 21.705 68.9137 22.564C68.9137 23.3454 68.6834 24.0311 68.2228 24.6211C67.7674 25.211 67.1412 25.6716 66.3443 26.0028C65.5525 26.3288 64.6391 26.4918 63.6041 26.4918C62.0257 26.4918 60.7682 26.1632 59.8315 25.506C58.9 24.8436 58.3541 23.9432 58.1936 22.8047L61.4461 22.6339C61.5445 23.1152 61.7825 23.4826 62.1603 23.7362C62.5381 23.9846 63.0219 24.1088 63.6119 24.1088C64.1915 24.1088 64.6572 23.9975 65.0091 23.775C65.3662 23.5473 65.5473 23.2549 65.5525 22.8978C65.5473 22.5977 65.4205 22.3518 65.1721 22.1604C64.9237 21.9637 64.5408 21.8136 64.0233 21.7101L61.9585 21.2987C60.7941 21.0658 59.9273 20.6622 59.358 20.0878C58.7939 19.5133 58.5119 18.7811 58.5119 17.891C58.5119 17.1251 58.7189 16.4653 59.1329 15.9115C59.5521 15.3578 60.1394 14.9309 60.895 14.6307C61.6557 14.3306 62.5458 14.1805 63.5653 14.1805C65.0712 14.1805 66.2563 14.4988 67.1205 15.1353C67.9899 15.7718 68.4971 16.6386 68.642 17.7357ZM77.3379 14.3357V16.8198H70.1576V14.3357H77.3379ZM71.7877 11.4791H75.0946V22.5951C75.0946 22.9004 75.1411 23.1384 75.2343 23.3092C75.3274 23.4748 75.4568 23.5913 75.6224 23.6585C75.7932 23.7258 75.9898 23.7594 76.2124 23.7594C76.3676 23.7594 76.5229 23.7465 76.6781 23.7206C76.8334 23.6896 76.9524 23.6663 77.0352 23.6508L77.5553 26.1115C77.3897 26.1632 77.1568 26.2227 76.8567 26.29C76.5565 26.3625 76.1917 26.4065 75.7621 26.422C74.9652 26.453 74.2666 26.3469 73.6663 26.1037C73.0711 25.8605 72.608 25.4827 72.2768 24.9704C71.9456 24.4581 71.7826 23.8112 71.7877 23.0298V11.4791ZM79.492 26.259V14.3357H82.7989V26.259H79.492ZM81.1532 12.7988C80.6616 12.7988 80.2398 12.6358 79.8879 12.3097C79.5412 11.9785 79.3678 11.5826 79.3678 11.1221C79.3678 10.6667 79.5412 10.276 79.8879 9.94993C80.2398 9.61873 80.6616 9.45313 81.1532 9.45313C81.6448 9.45313 82.064 9.61873 82.4107 9.94993C82.7626 10.276 82.9386 10.6667 82.9386 11.1221C82.9386 11.5826 82.7626 11.9785 82.4107 12.3097C82.064 12.6358 81.6448 12.7988 81.1532 12.7988ZM90.835 26.4918C89.6137 26.4918 88.5632 26.2331 87.6834 25.7156C86.8089 25.1929 86.1361 24.4684 85.6652 23.5421C85.1994 22.6158 84.9665 21.5497 84.9665 20.3439C84.9665 19.1226 85.202 18.0514 85.6729 17.1303C86.149 16.2039 86.8244 15.482 87.699 14.9645C88.5735 14.4418 89.6137 14.1805 90.8195 14.1805C91.8597 14.1805 92.7705 14.3694 93.5519 14.7472C94.3333 15.1249 94.9517 15.6554 95.4071 16.3385C95.8625 17.0216 96.1135 17.8237 96.1601 18.7449H93.0396C92.9516 18.1497 92.7187 17.671 92.3409 17.3088C91.9683 16.9414 91.4793 16.7577 90.8738 16.7577C90.3615 16.7577 89.9139 16.8974 89.5309 17.1768C89.1531 17.4511 88.8582 17.8522 88.646 18.38C88.4338 18.9079 88.3277 19.547 88.3277 20.2974C88.3277 21.0581 88.4312 21.705 88.6382 22.238C88.8504 22.771 89.148 23.1773 89.5309 23.4567C89.9139 23.7362 90.3615 23.8759 90.8738 23.8759C91.2516 23.8759 91.5906 23.7983 91.8907 23.643C92.196 23.4878 92.447 23.2626 92.6437 22.9677C92.8455 22.6675 92.9775 22.3079 93.0396 21.8887H96.1601C96.1083 22.7995 95.8599 23.6016 95.4149 24.2951C94.975 24.9833 94.367 25.5215 93.5907 25.9097C92.8145 26.2978 91.8959 26.4918 90.835 26.4918ZM101.677 26.4841C100.917 26.4841 100.239 26.3521 99.6435 26.0882C99.0484 25.8191 98.5775 25.4232 98.2307 24.9005C97.8892 24.3727 97.7184 23.7155 97.7184 22.9289C97.7184 22.2665 97.84 21.7101 98.0833 21.2599C98.3265 20.8097 98.6577 20.4474 99.0769 20.1732C99.496 19.8989 99.9721 19.6919 100.505 19.5522C101.043 19.4124 101.607 19.3141 102.197 19.2572C102.891 19.1847 103.45 19.1175 103.874 19.0554C104.298 18.9881 104.606 18.8898 104.798 18.7604C104.989 18.631 105.085 18.4395 105.085 18.186V18.1394C105.085 17.6478 104.93 17.2674 104.619 16.9983C104.314 16.7292 103.879 16.5946 103.315 16.5946C102.72 16.5946 102.247 16.7266 101.895 16.9905C101.543 17.2493 101.31 17.5753 101.196 17.9686L98.1376 17.7202C98.2928 16.9957 98.5982 16.3695 99.0536 15.8417C99.509 15.3087 100.096 14.8998 100.816 14.6152C101.54 14.3254 102.379 14.1805 103.331 14.1805C103.993 14.1805 104.627 14.2581 105.233 14.4134C105.843 14.5686 106.384 14.8093 106.855 15.1353C107.331 15.4613 107.706 15.8805 107.98 16.3928C108.255 16.9 108.392 17.508 108.392 18.217V26.259H105.256V24.6056H105.163C104.971 24.9782 104.715 25.3068 104.394 25.5914C104.073 25.8708 103.688 26.0908 103.238 26.2512C102.787 26.4065 102.267 26.4841 101.677 26.4841ZM102.624 24.2019C103.111 24.2019 103.54 24.1062 103.913 23.9147C104.286 23.718 104.578 23.4541 104.79 23.1229C105.002 22.7917 105.108 22.4165 105.108 21.9974V20.7321C105.005 20.7993 104.863 20.8614 104.681 20.9184C104.505 20.9701 104.306 21.0193 104.084 21.0658C103.861 21.1072 103.639 21.1461 103.416 21.1823C103.194 21.2133 102.992 21.2418 102.811 21.2677C102.422 21.3246 102.084 21.4152 101.794 21.5394C101.504 21.6636 101.279 21.8318 101.118 22.0439C100.958 22.2509 100.878 22.5097 100.878 22.8202C100.878 23.2704 101.041 23.6145 101.367 23.8526C101.698 24.0855 102.117 24.2019 102.624 24.2019ZM114.264 10.3613V26.259H110.957V10.3613H114.264ZM116.913 26.259V14.3357H120.22V26.259H116.913ZM118.574 12.7988C118.083 12.7988 117.661 12.6358 117.309 12.3097C116.962 11.9785 116.789 11.5826 116.789 11.1221C116.789 10.6667 116.962 10.276 117.309 9.94993C117.661 9.61873 118.083 9.45313 118.574 9.45313C119.066 9.45313 119.485 9.61873 119.832 9.94993C120.184 10.276 120.36 10.6667 120.36 11.1221C120.36 11.5826 120.184 11.9785 119.832 12.3097C119.485 12.6358 119.066 12.7988 118.574 12.7988ZM129.211 14.3357V16.8198H122.031V14.3357H129.211ZM123.661 11.4791H126.968V22.5951C126.968 22.9004 127.014 23.1384 127.107 23.3092C127.2 23.4748 127.33 23.5913 127.495 23.6585C127.666 23.7258 127.863 23.7594 128.085 23.7594C128.241 23.7594 128.396 23.7465 128.551 23.7206C128.706 23.6896 128.825 23.6663 128.908 23.6508L129.428 26.1115C129.263 26.1632 129.03 26.2227 128.73 26.29C128.43 26.3625 128.065 26.4065 127.635 26.422C126.838 26.453 126.14 26.3469 125.539 26.1037C124.944 25.8605 124.481 25.4827 124.15 24.9704C123.819 24.4581 123.656 23.8112 123.661 23.0298V11.4791ZM133.407 30.7302C132.987 30.7302 132.594 30.6965 132.227 30.6293C131.864 30.5672 131.564 30.487 131.326 30.3886L132.071 27.9202C132.46 28.0392 132.809 28.1039 133.119 28.1142C133.435 28.1246 133.707 28.0521 133.934 27.8969C134.167 27.7416 134.356 27.4777 134.501 27.1051L134.695 26.6005L130.418 14.3357H133.896L136.364 23.0919H136.488L138.98 14.3357H142.481L137.847 27.5475C137.624 28.1893 137.321 28.7482 136.939 29.2243C136.561 29.7055 136.082 30.0755 135.502 30.3343C134.923 30.5982 134.224 30.7302 133.407 30.7302Z" fill="white"/>
<path d="M1.38173 26.259V10.3613H4.7429V23.4878H11.5584V26.259H1.38173ZM14.2694 30.7302C13.8503 30.7302 13.457 30.6965 13.0895 30.6293C12.7273 30.5672 12.4271 30.487 12.1891 30.3886L12.9343 27.9202C13.3224 28.0392 13.6717 28.1039 13.9822 28.1142C14.2979 28.1246 14.5696 28.0521 14.7973 27.8969C15.0302 27.7416 15.2191 27.4777 15.364 27.1051L15.558 26.6005L11.2809 14.3357H14.7585L17.227 23.0919H17.3512L19.8429 14.3357H23.3438L18.7096 27.5475C18.4871 28.1893 18.1843 28.7482 17.8014 29.2243C17.4236 29.7055 16.9449 30.0755 16.3653 30.3343C15.7857 30.5982 15.0871 30.7302 14.2694 30.7302ZM25.0361 26.259V14.3357H28.242V16.4161H28.3662C28.5835 15.6761 28.9484 15.1172 29.4607 14.7394C29.973 14.3564 30.563 14.165 31.2305 14.165C31.3961 14.165 31.5747 14.1753 31.7662 14.196C31.9576 14.2167 32.1258 14.2452 32.2707 14.2814V17.2156C32.1155 17.1691 31.9007 17.1277 31.6264 17.0914C31.3522 17.0552 31.1012 17.0371 30.8735 17.0371C30.387 17.0371 29.9523 17.1432 29.5694 17.3554C29.1916 17.5624 28.8914 17.8522 28.6689 18.2248C28.4516 18.5974 28.3429 19.0269 28.3429 19.5133V26.259H25.0361ZM33.9804 26.259V14.3357H37.2872V26.259H33.9804ZM35.6416 12.7988C35.15 12.7988 34.7282 12.6358 34.3763 12.3097C34.0296 11.9785 33.8562 11.5826 33.8562 11.1221C33.8562 10.6667 34.0296 10.276 34.3763 9.94993C34.7282 9.61873 35.15 9.45313 35.6416 9.45313C36.1332 9.45313 36.5524 9.61873 36.8991 9.94993C37.251 10.276 37.427 10.6667 37.427 11.1221C37.427 11.5826 37.251 11.9785 36.8991 12.3097C36.5524 12.6358 36.1332 12.7988 35.6416 12.7988ZM45.3234 26.4918C44.1021 26.4918 43.0516 26.2331 42.1718 25.7156C41.2972 25.1929 40.6245 24.4684 40.1535 23.5421C39.6878 22.6158 39.4549 21.5497 39.4549 20.3439C39.4549 19.1226 39.6904 18.0514 40.1613 17.1303C40.6374 16.2039 41.3127 15.482 42.1873 14.9645C43.0619 14.4418 44.1021 14.1805 45.3079 14.1805C46.348 14.1805 47.2588 14.3694 48.0403 14.7472C48.8217 15.1249 49.4401 15.6554 49.8955 16.3385C50.3509 17.0216 50.6019 17.8237 50.6485 18.7449H47.5279C47.44 18.1497 47.2071 17.671 46.8293 17.3088C46.4567 16.9414 45.9677 16.7577 45.3622 16.7577C44.8499 16.7577 44.4022 16.8974 44.0193 17.1768C43.6415 17.4511 43.3465 17.8522 43.1344 18.38C42.9222 18.9079 42.8161 19.547 42.8161 20.2974C42.8161 21.0581 42.9196 21.705 43.1266 22.238C43.3388 22.771 43.6363 23.1773 44.0193 23.4567C44.4022 23.7362 44.8499 23.8759 45.3622 23.8759C45.74 23.8759 46.0789 23.7983 46.3791 23.643C46.6844 23.4878 46.9354 23.2626 47.132 22.9677C47.3339 22.6675 47.4658 22.3079 47.5279 21.8887H50.6485C50.5967 22.7995 50.3483 23.6016 49.9033 24.2951C49.4634 24.9833 48.8553 25.5215 48.0791 25.9097C47.3028 26.2978 46.3843 26.4918 45.3234 26.4918ZM52.7657 26.259V14.3357H56.0725V26.259H52.7657ZM54.4269 12.7988C53.9352 12.7988 53.5135 12.6358 53.1616 12.3097C52.8149 11.9785 52.6415 11.5826 52.6415 11.1221C52.6415 10.6667 52.8149 10.276 53.1616 9.94993C53.5135 9.61873 53.9352 9.45313 54.4269 9.45313C54.9185 9.45313 55.3377 9.61873 55.6844 9.94993C56.0363 10.276 56.2123 10.6667 56.2123 11.1221C56.2123 11.5826 56.0363 11.9785 55.6844 12.3097C55.3377 12.6358 54.9185 12.7988 54.4269 12.7988ZM68.642 17.7357L65.6146 17.922C65.5628 17.6633 65.4516 17.4304 65.2808 17.2234C65.11 17.0112 64.8849 16.843 64.6055 16.7188C64.3312 16.5895 64.0026 16.5248 63.6196 16.5248C63.1073 16.5248 62.6752 16.6335 62.3233 16.8508C61.9714 17.063 61.7954 17.3476 61.7954 17.7047C61.7954 17.9893 61.9093 18.2299 62.137 18.4266C62.3647 18.6232 62.7554 18.7811 63.3091 18.9001L65.4671 19.3348C66.6263 19.5729 67.4905 19.9558 68.0598 20.4837C68.629 21.0115 68.9137 21.705 68.9137 22.564C68.9137 23.3454 68.6834 24.0311 68.2228 24.6211C67.7674 25.211 67.1412 25.6716 66.3443 26.0028C65.5525 26.3288 64.6391 26.4918 63.6041 26.4918C62.0257 26.4918 60.7682 26.1632 59.8315 25.506C58.9 24.8436 58.3541 23.9432 58.1936 22.8047L61.4461 22.6339C61.5445 23.1152 61.7825 23.4826 62.1603 23.7362C62.5381 23.9846 63.0219 24.1088 63.6119 24.1088C64.1915 24.1088 64.6572 23.9975 65.0091 23.775C65.3662 23.5473 65.5473 23.2549 65.5525 22.8978C65.5473 22.5977 65.4205 22.3518 65.1721 22.1604C64.9237 21.9637 64.5408 21.8136 64.0233 21.7101L61.9585 21.2987C60.7941 21.0658 59.9273 20.6622 59.358 20.0878C58.7939 19.5133 58.5119 18.7811 58.5119 17.891C58.5119 17.1251 58.7189 16.4653 59.1329 15.9115C59.5521 15.3578 60.1394 14.9309 60.895 14.6307C61.6557 14.3306 62.5458 14.1805 63.5653 14.1805C65.0712 14.1805 66.2563 14.4988 67.1205 15.1353C67.9899 15.7718 68.4971 16.6386 68.642 17.7357ZM77.3379 14.3357V16.8198H70.1576V14.3357H77.3379ZM71.7877 11.4791H75.0946V22.5951C75.0946 22.9004 75.1411 23.1384 75.2343 23.3092C75.3274 23.4748 75.4568 23.5913 75.6224 23.6585C75.7932 23.7258 75.9898 23.7594 76.2124 23.7594C76.3676 23.7594 76.5229 23.7465 76.6781 23.7206C76.8334 23.6896 76.9524 23.6663 77.0352 23.6508L77.5553 26.1115C77.3897 26.1632 77.1568 26.2227 76.8567 26.29C76.5565 26.3625 76.1917 26.4065 75.7621 26.422C74.9652 26.453 74.2666 26.3469 73.6663 26.1037C73.0711 25.8605 72.608 25.4827 72.2768 24.9704C71.9456 24.4581 71.7826 23.8112 71.7877 23.0298V11.4791ZM79.492 26.259V14.3357H82.7989V26.259H79.492ZM81.1532 12.7988C80.6616 12.7988 80.2398 12.6358 79.8879 12.3097C79.5412 11.9785 79.3678 11.5826 79.3678 11.1221C79.3678 10.6667 79.5412 10.276 79.8879 9.94993C80.2398 9.61873 80.6616 9.45313 81.1532 9.45313C81.6448 9.45313 82.064 9.61873 82.4107 9.94993C82.7626 10.276 82.9386 10.6667 82.9386 11.1221C82.9386 11.5826 82.7626 11.9785 82.4107 12.3097C82.064 12.6358 81.6448 12.7988 81.1532 12.7988ZM90.835 26.4918C89.6137 26.4918 88.5632 26.2331 87.6834 25.7156C86.8089 25.1929 86.1361 24.4684 85.6652 23.5421C85.1994 22.6158 84.9665 21.5497 84.9665 20.3439C84.9665 19.1226 85.202 18.0514 85.6729 17.1303C86.149 16.2039 86.8244 15.482 87.699 14.9645C88.5735 14.4418 89.6137 14.1805 90.8195 14.1805C91.8597 14.1805 92.7705 14.3694 93.5519 14.7472C94.3333 15.1249 94.9517 15.6554 95.4071 16.3385C95.8625 17.0216 96.1135 17.8237 96.1601 18.7449H93.0396C92.9516 18.1497 92.7187 17.671 92.3409 17.3088C91.9683 16.9414 91.4793 16.7577 90.8738 16.7577C90.3615 16.7577 89.9139 16.8974 89.5309 17.1768C89.1531 17.4511 88.8582 17.8522 88.646 18.38C88.4338 18.9079 88.3277 19.547 88.3277 20.2974C88.3277 21.0581 88.4312 21.705 88.6382 22.238C88.8504 22.771 89.148 23.1773 89.5309 23.4567C89.9139 23.7362 90.3615 23.8759 90.8738 23.8759C91.2516 23.8759 91.5906 23.7983 91.8907 23.643C92.196 23.4878 92.447 23.2626 92.6437 22.9677C92.8455 22.6675 92.9775 22.3079 93.0396 21.8887H96.1601C96.1083 22.7995 95.8599 23.6016 95.4149 24.2951C94.975 24.9833 94.367 25.5215 93.5907 25.9097C92.8145 26.2978 91.8959 26.4918 90.835 26.4918ZM101.677 26.4841C100.917 26.4841 100.239 26.3521 99.6435 26.0882C99.0484 25.8191 98.5775 25.4232 98.2307 24.9005C97.8892 24.3727 97.7184 23.7155 97.7184 22.9289C97.7184 22.2665 97.84 21.7101 98.0833 21.2599C98.3265 20.8097 98.6577 20.4474 99.0769 20.1732C99.496 19.8989 99.9721 19.6919 100.505 19.5522C101.043 19.4124 101.607 19.3141 102.197 19.2572C102.891 19.1847 103.45 19.1175 103.874 19.0554C104.298 18.9881 104.606 18.8898 104.798 18.7604C104.989 18.631 105.085 18.4395 105.085 18.186V18.1394C105.085 17.6478 104.93 17.2674 104.619 16.9983C104.314 16.7292 103.879 16.5946 103.315 16.5946C102.72 16.5946 102.247 16.7266 101.895 16.9905C101.543 17.2493 101.31 17.5753 101.196 17.9686L98.1376 17.7202C98.2928 16.9957 98.5982 16.3695 99.0536 15.8417C99.509 15.3087 100.096 14.8998 100.816 14.6152C101.54 14.3254 102.379 14.1805 103.331 14.1805C103.993 14.1805 104.627 14.2581 105.233 14.4134C105.843 14.5686 106.384 14.8093 106.855 15.1353C107.331 15.4613 107.706 15.8805 107.98 16.3928C108.255 16.9 108.392 17.508 108.392 18.217V26.259H105.256V24.6056H105.163C104.971 24.9782 104.715 25.3068 104.394 25.5914C104.073 25.8708 103.688 26.0908 103.238 26.2512C102.787 26.4065 102.267 26.4841 101.677 26.4841ZM102.624 24.2019C103.111 24.2019 103.54 24.1062 103.913 23.9147C104.286 23.718 104.578 23.4541 104.79 23.1229C105.002 22.7917 105.108 22.4165 105.108 21.9974V20.7321C105.005 20.7993 104.863 20.8614 104.681 20.9184C104.505 20.9701 104.306 21.0193 104.084 21.0658C103.861 21.1072 103.639 21.1461 103.416 21.1823C103.194 21.2133 102.992 21.2418 102.811 21.2677C102.422 21.3246 102.084 21.4152 101.794 21.5394C101.504 21.6636 101.279 21.8318 101.118 22.0439C100.958 22.2509 100.878 22.5097 100.878 22.8202C100.878 23.2704 101.041 23.6145 101.367 23.8526C101.698 24.0855 102.117 24.2019 102.624 24.2019ZM114.264 10.3613V26.259H110.957V10.3613H114.264ZM116.913 26.259V14.3357H120.22V26.259H116.913ZM118.574 12.7988C118.083 12.7988 117.661 12.6358 117.309 12.3097C116.962 11.9785 116.789 11.5826 116.789 11.1221C116.789 10.6667 116.962 10.276 117.309 9.94993C117.661 9.61873 118.083 9.45313 118.574 9.45313C119.066 9.45313 119.485 9.61873 119.832 9.94993C120.184 10.276 120.36 10.6667 120.36 11.1221C120.36 11.5826 120.184 11.9785 119.832 12.3097C119.485 12.6358 119.066 12.7988 118.574 12.7988ZM129.211 14.3357V16.8198H122.031V14.3357H129.211ZM123.661 11.4791H126.968V22.5951C126.968 22.9004 127.014 23.1384 127.107 23.3092C127.2 23.4748 127.33 23.5913 127.495 23.6585C127.666 23.7258 127.863 23.7594 128.085 23.7594C128.241 23.7594 128.396 23.7465 128.551 23.7206C128.706 23.6896 128.825 23.6663 128.908 23.6508L129.428 26.1115C129.263 26.1632 129.03 26.2227 128.73 26.29C128.43 26.3625 128.065 26.4065 127.635 26.422C126.838 26.453 126.14 26.3469 125.539 26.1037C124.944 25.8605 124.481 25.4827 124.15 24.9704C123.819 24.4581 123.656 23.8112 123.661 23.0298V11.4791ZM133.407 30.7302C132.987 30.7302 132.594 30.6965 132.227 30.6293C131.864 30.5672 131.564 30.487 131.326 30.3886L132.071 27.9202C132.46 28.0392 132.809 28.1039 133.119 28.1142C133.435 28.1246 133.707 28.0521 133.934 27.8969C134.167 27.7416 134.356 27.4777 134.501 27.1051L134.695 26.6005L130.418 14.3357H133.896L136.364 23.0919H136.488L138.98 14.3357H142.481L137.847 27.5475C137.624 28.1893 137.321 28.7482 136.939 29.2243C136.561 29.7055 136.082 30.0755 135.502 30.3343C134.923 30.5982 134.224 30.7302 133.407 30.7302Z" fill="url(#paint0_radial_1_45)" fill-opacity="0.5"/>
</g>
<g filter="url(#filter1_di_1_45)">
<path d="M145.964 12L143.732 5.4H144.704L146.228 9.972C146.308 10.22 146.384 10.468 146.456 10.716C146.528 10.956 146.584 11.144 146.624 11.28C146.664 11.144 146.72 10.956 146.792 10.716C146.864 10.468 146.94 10.22 147.02 9.972L148.508 5.4H149.468L147.236 12H145.964ZM153.795 12.12C153.267 12.12 152.807 12.016 152.415 11.808C152.023 11.592 151.719 11.292 151.503 10.908C151.295 10.516 151.191 10.06 151.191 9.54V5.7C151.191 5.172 151.295 4.716 151.503 4.332C151.719 3.948 152.023 3.652 152.415 3.444C152.807 3.228 153.267 3.12 153.795 3.12C154.331 3.12 154.791 3.228 155.175 3.444C155.567 3.652 155.867 3.948 156.075 4.332C156.291 4.716 156.399 5.172 156.399 5.7V9.54C156.399 10.068 156.291 10.524 156.075 10.908C155.867 11.292 155.567 11.592 155.175 11.808C154.783 12.016 154.323 12.12 153.795 12.12ZM153.795 11.28C154.299 11.28 154.699 11.12 154.995 10.8C155.299 10.48 155.451 10.06 155.451 9.54V5.7C155.451 5.18 155.299 4.76 154.995 4.44C154.699 4.12 154.299 3.96 153.795 3.96C153.291 3.96 152.887 4.12 152.583 4.44C152.287 4.76 152.139 5.18 152.139 5.7V9.54C152.139 10.06 152.287 10.48 152.583 10.8C152.887 11.12 153.291 11.28 153.795 11.28ZM153.795 8.292C153.587 8.292 153.419 8.228 153.291 8.1C153.171 7.964 153.111 7.792 153.111 7.584C153.111 7.376 153.171 7.212 153.291 7.092C153.419 6.964 153.587 6.9 153.795 6.9C154.003 6.9 154.167 6.964 154.287 7.092C154.415 7.212 154.479 7.376 154.479 7.584C154.479 7.792 154.415 7.964 154.287 8.1C154.167 8.228 154.003 8.292 153.795 8.292ZM160.991 12.12C160.695 12.12 160.459 12.036 160.283 11.868C160.115 11.692 160.031 11.46 160.031 11.172C160.031 10.868 160.115 10.628 160.283 10.452C160.459 10.276 160.695 10.188 160.991 10.188C161.287 10.188 161.519 10.276 161.687 10.452C161.863 10.628 161.951 10.868 161.951 11.172C161.951 11.46 161.863 11.692 161.687 11.868C161.519 12.036 161.287 12.12 160.991 12.12ZM165.702 12V11.136H168.102V4.044L165.726 5.808V4.752L167.766 3.24H169.05V11.136H171.03V12H165.702Z" fill="white" fill-opacity="0.5" shape-rendering="crispEdges"/>
<path d="M145.964 12L143.732 5.4H144.704L146.228 9.972C146.308 10.22 146.384 10.468 146.456 10.716C146.528 10.956 146.584 11.144 146.624 11.28C146.664 11.144 146.72 10.956 146.792 10.716C146.864 10.468 146.94 10.22 147.02 9.972L148.508 5.4H149.468L147.236 12H145.964ZM153.795 12.12C153.267 12.12 152.807 12.016 152.415 11.808C152.023 11.592 151.719 11.292 151.503 10.908C151.295 10.516 151.191 10.06 151.191 9.54V5.7C151.191 5.172 151.295 4.716 151.503 4.332C151.719 3.948 152.023 3.652 152.415 3.444C152.807 3.228 153.267 3.12 153.795 3.12C154.331 3.12 154.791 3.228 155.175 3.444C155.567 3.652 155.867 3.948 156.075 4.332C156.291 4.716 156.399 5.172 156.399 5.7V9.54C156.399 10.068 156.291 10.524 156.075 10.908C155.867 11.292 155.567 11.592 155.175 11.808C154.783 12.016 154.323 12.12 153.795 12.12ZM153.795 11.28C154.299 11.28 154.699 11.12 154.995 10.8C155.299 10.48 155.451 10.06 155.451 9.54V5.7C155.451 5.18 155.299 4.76 154.995 4.44C154.699 4.12 154.299 3.96 153.795 3.96C153.291 3.96 152.887 4.12 152.583 4.44C152.287 4.76 152.139 5.18 152.139 5.7V9.54C152.139 10.06 152.287 10.48 152.583 10.8C152.887 11.12 153.291 11.28 153.795 11.28ZM153.795 8.292C153.587 8.292 153.419 8.228 153.291 8.1C153.171 7.964 153.111 7.792 153.111 7.584C153.111 7.376 153.171 7.212 153.291 7.092C153.419 6.964 153.587 6.9 153.795 6.9C154.003 6.9 154.167 6.964 154.287 7.092C154.415 7.212 154.479 7.376 154.479 7.584C154.479 7.792 154.415 7.964 154.287 8.1C154.167 8.228 154.003 8.292 153.795 8.292ZM160.991 12.12C160.695 12.12 160.459 12.036 160.283 11.868C160.115 11.692 160.031 11.46 160.031 11.172C160.031 10.868 160.115 10.628 160.283 10.452C160.459 10.276 160.695 10.188 160.991 10.188C161.287 10.188 161.519 10.276 161.687 10.452C161.863 10.628 161.951 10.868 161.951 11.172C161.951 11.46 161.863 11.692 161.687 11.868C161.519 12.036 161.287 12.12 160.991 12.12ZM165.702 12V11.136H168.102V4.044L165.726 5.808V4.752L167.766 3.24H169.05V11.136H171.03V12H165.702Z" fill="url(#paint1_radial_1_45)" fill-opacity="0.5" shape-rendering="crispEdges"/>
</g>
<defs>
<filter id="filter0_di_1_45" x="0.0920749" y="8.16336" width="143.679" height="23.8566" filterUnits="userSpaceOnUse" color-interpolation-filters="sRGB">
<feFlood flood-opacity="0" result="BackgroundImageFix"/>
<feColorMatrix in="SourceAlpha" type="matrix" values="0 0 0 0 0 0 0 0 0 0 0 0 0 0 0 0 0 0 127 0" result="hardAlpha"/>
<feOffset/>
<feGaussianBlur stdDeviation="0.644881"/>
<feComposite in2="hardAlpha" operator="out"/>
<feColorMatrix type="matrix" values="0 0 0 0 1 0 0 0 0 1 0 0 0 0 1 0 0 0 0.48 0"/>
<feBlend mode="normal" in2="BackgroundImageFix" result="effect1_dropShadow_1_45"/>
<feBlend mode="normal" in="SourceGraphic" in2="effect1_dropShadow_1_45" result="shape"/>
<feColorMatrix in="SourceAlpha" type="matrix" values="0 0 0 0 0 0 0 0 0 0 0 0 0 0 0 0 0 0 127 0" result="hardAlpha"/>
<feOffset dy="0.204531"/>
<feGaussianBlur stdDeviation="0.102266"/>
<feComposite in2="hardAlpha" operator="arithmetic" k2="-1" k3="1"/>
<feColorMatrix type="matrix" values="0 0 0 0 0 0 0 0 0 0 0 0 0 0 0 0 0 0 0.25 0"/>
<feBlend mode="normal" in2="shape" result="effect2_innerShadow_1_45"/>
</filter>
<filter id="filter1_di_1_45" x="142.442" y="1.83023" width="29.8774" height="11.5795" filterUnits="userSpaceOnUse" color-interpolation-filters="sRGB">
<feFlood flood-opacity="0" result="BackgroundImageFix"/>
<feColorMatrix in="SourceAlpha" type="matrix" values="0 0 0 0 0 0 0 0 0 0 0 0 0 0 0 0 0 0 127 0" result="hardAlpha"/>
<feOffset/>
<feGaussianBlur stdDeviation="0.644881"/>
<feComposite in2="hardAlpha" operator="out"/>
<feColorMatrix type="matrix" values="0 0 0 0 1 0 0 0 0 1 0 0 0 0 1 0 0 0 0.48 0"/>
<feBlend mode="normal" in2="BackgroundImageFix" result="effect1_dropShadow_1_45"/>
<feBlend mode="normal" in="SourceGraphic" in2="effect1_dropShadow_1_45" result="shape"/>
<feColorMatrix in="SourceAlpha" type="matrix" values="0 0 0 0 0 0 0 0 0 0 0 0 0 0 0 0 0 0 127 0" result="hardAlpha"/>
<feOffset dy="0.204531"/>
<feGaussianBlur stdDeviation="0.102266"/>
<feComposite in2="hardAlpha" operator="arithmetic" k2="-1" k3="1"/>
<feColorMatrix type="matrix" values="0 0 0 0 0 0 0 0 0 0 0 0 0 0 0 0 0 0 0.25 0"/>
<feBlend mode="normal" in2="shape" result="effect2_innerShadow_1_45"/>
</filter>
<radialGradient id="paint0_radial_1_45" cx="0" cy="0" r="1" gradientUnits="userSpaceOnUse" gradientTransform="translate(71.5 3.63101) rotate(90) scale(27.628 151.954)">
<stop stop-color="#FBE0D5"/>
<stop offset="0.302885" stop-color="#F7E2F1"/>
<stop offset="0.600962" stop-color="#C6D6F8"/>
<stop offset="1" stop-color="#F2F3E1"/>
</radialGradient>
<radialGradient id="paint1_radial_1_45" cx="0" cy="0" r="1" gradientUnits="userSpaceOnUse" gradientTransform="translate(157.5 -1.00182) rotate(90) scale(17.0018 30.8158)">
<stop stop-color="#FBE0D5"/>
<stop offset="0.302885" stop-color="#F7E2F1"/>
<stop offset="0.600962" stop-color="#C6D6F8"/>
<stop offset="1" stop-color="#F2F3E1"/>
</radialGradient>
</defs>
</svg>
